<?xml version="1.0" encoding="UTF-8" standalone="no"?>
<!DOCTYPE svg PUBLIC "-//W3C//DTD SVG 1.1//EN"
 "http://www.w3.org/Graphics/SVG/1.1/DTD/svg11.dtd">
<!-- Generated by graphviz version 7.0.4 (20221203.1631)
 -->
<!-- Pages: 1 -->
<svg width="654pt" height="289pt"
 viewBox="0.00 0.00 653.73 289.01" xmlns="http://www.w3.org/2000/svg" xmlns:xlink="http://www.w3.org/1999/xlink">
<g id="graph0" class="graph" transform="scale(1 1) rotate(0) translate(4 285.01)">
<polygon fill="white" stroke="none" points="-4,4 -4,-285.01 649.73,-285.01 649.73,4 -4,4"/>
<text text-anchor="middle" x="322.86" y="-7.8" font-family="Times,serif" font-size="14.00">Use Cases</text>
<g id="clust2" class="cluster">
<title>usecases</title>
<path fill="#eeeeee" stroke="#eeeeee" d="M233,-126.01C233,-126.01 625.73,-126.01 625.73,-126.01 631.73,-126.01 637.73,-132.01 637.73,-138.01 637.73,-138.01 637.73,-261.01 637.73,-261.01 637.73,-267.01 631.73,-273.01 625.73,-273.01 625.73,-273.01 233,-273.01 233,-273.01 227,-273.01 221,-267.01 221,-261.01 221,-261.01 221,-138.01 221,-138.01 221,-132.01 227,-126.01 233,-126.01"/>
<text text-anchor="middle" x="429.36" y="-257.81" font-family="Times,serif" font-size="14.00">Foo System</text>
</g>
<!-- User -->
<g id="node1" class="node">
<title>User</title>
<polygon fill="none" stroke="black" points="374.29,-98.01 268.29,-98.01 268.29,-62.01 374.29,-62.01 374.29,-98.01"/>
<text text-anchor="middle" x="321.29" y="-76.31" font-family="Times,serif" font-size="14.00">User &lt;&lt;actor&gt;&gt;</text>
</g>
<!-- Create Account -->
<g id="node3" class="node">
<title>Create Account</title>
<ellipse fill="none" stroke="black" cx="564.08" cy="-152.01" rx="65.79" ry="18"/>
<text text-anchor="middle" x="564.08" y="-148.31" font-family="Times,serif" font-size="14.00">Create Account</text>
</g>
<!-- User&#45;&gt;Create Account -->
<g id="edge3" class="edge">
<title>User&#45;&gt;Create Account</title>
<g id="a_edge3"><a xlink:title="communication">
<path fill="none" stroke="black" d="M374.54,-95.63C417.56,-108.49 477.88,-126.53 518.61,-138.71"/>
</a>
</g>
</g>
<!-- Administrator -->
<g id="node2" class="node">
<title>Administrator</title>
<polygon fill="none" stroke="black" points="157,-61.01 0,-61.01 0,-25.01 157,-25.01 157,-61.01"/>
<text text-anchor="middle" x="78.5" y="-39.31" font-family="Times,serif" font-size="14.00">Administrator &lt;&lt;actor&gt;&gt;</text>
</g>
<!-- Administrator&#45;&gt;User -->
<g id="edge1" class="edge">
<title>Administrator&#45;&gt;User</title>
<g id="a_edge1"><a xlink:title="generalization">
<path fill="none" stroke="black" d="M157.35,-54.97C189.39,-59.89 226.05,-65.53 256.47,-70.2"/>
<polygon fill="none" stroke="black" points="255.89,-73.65 266.3,-71.71 256.95,-66.73 255.89,-73.65"/>
</a>
</g>
</g>
<!-- Administrator&#45;&gt;Create Account -->
<g id="edge2" class="edge">
<title>Administrator&#45;&gt;Create Account</title>
<g id="a_edge2"><a xlink:title="communication">
<path fill="none" stroke="black" d="M157.24,-30.04C226.34,-21.57 329.19,-16.57 413.58,-44.01 468.7,-61.92 520.61,-108.49 546.3,-134.24"/>
</a>
</g>
</g>
<!-- Create User Account -->
<g id="node4" class="node">
<title>Create User Account</title>
<ellipse fill="none" stroke="black" cx="321.29" cy="-224.01" rx="84.49" ry="18"/>
<text text-anchor="middle" x="321.29" y="-220.31" font-family="Times,serif" font-size="14.00">Create User Account</text>
</g>
<!-- Create User Account&#45;&gt;Create Account -->
<g id="edge4" class="edge">
<title>Create User Account&#45;&gt;Create Account</title>
<g id="a_edge4"><a xlink:title="inherits">
<path fill="none" stroke="black" stroke-width="2" d="M371.89,-209.18C411.36,-197.37 466.58,-180.86 507.54,-168.62"/>
<polygon fill="none" stroke="black" stroke-width="2" points="506.94,-172.45 515.52,-166.23 504.93,-165.74 506.94,-172.45"/>
</a>
</g>
</g>
<!-- Create Admin Account -->
<g id="node5" class="node">
<title>Create Admin Account</title>
<ellipse fill="none" stroke="black" cx="321.29" cy="-152.01" rx="92.08" ry="18"/>
<text text-anchor="middle" x="321.29" y="-148.31" font-family="Times,serif" font-size="14.00">Create Admin Account</text>
</g>
<!-- Create Admin Account&#45;&gt;Create Account -->
<g id="edge5" class="edge">
<title>Create Admin Account&#45;&gt;Create Account</title>
<g id="a_edge5"><a xlink:title="inherits">
<path fill="none" stroke="black" stroke-width="2" d="M413.67,-152.01C437.68,-152.01 463.34,-152.01 486.49,-152.01"/>
<polygon fill="none" stroke="black" stroke-width="2" points="484.96,-155.51 494.96,-152.01 484.96,-148.51 484.96,-155.51"/>
</a>
</g>
</g>
</g>
</svg>
